<svg xmlns="http://www.w3.org/2000/svg" xmlns:xlink="http://www.w3.org/1999/xlink" width="60" zoomAndPan="magnify" viewBox="0 0 45 44.999999" height="60" preserveAspectRatio="xMidYMid meet" version="1.0"><defs><clipPath id="bdfb87aa21"><path d="M 15 10.765625 L 33 10.765625 L 33 26 L 15 26 Z M 15 10.765625 " clip-rule="nonzero"/></clipPath><clipPath id="bb6d3d4cfd"><path d="M 9.582031 21 L 27 21 L 27 37.027344 L 9.582031 37.027344 Z M 9.582031 21 " clip-rule="nonzero"/></clipPath><clipPath id="18fc80442e"><path d="M 22 21 L 39 21 L 39 37.027344 L 22 37.027344 Z M 22 21 " clip-rule="nonzero"/></clipPath></defs><g clip-path="url(#bdfb87aa21)"><path fill="#ffffff" d="M 32.035156 17.433594 L 28.734375 11.671875 C 28.414062 11.105469 27.796875 10.75 27.152344 10.75 L 20.550781 10.75 C 19.890625 10.75 19.289062 11.105469 18.96875 11.671875 L 15.664062 17.433594 C 15.34375 18 15.34375 18.707031 15.664062 19.273438 L 18.96875 25.035156 C 19.289062 25.601562 19.902344 25.957031 20.550781 25.957031 L 22.945312 25.957031 L 23.851562 24.375 L 20.550781 24.375 C 20.457031 24.375 20.363281 24.328125 20.320312 24.234375 L 17.015625 18.476562 C 16.972656 18.398438 16.972656 18.292969 17.015625 18.214844 L 20.320312 12.457031 C 20.363281 12.378906 20.457031 12.316406 20.550781 12.316406 L 27.152344 12.316406 C 27.246094 12.316406 27.335938 12.363281 27.382812 12.457031 L 30.683594 18.214844 C 30.730469 18.292969 30.730469 18.398438 30.683594 18.476562 L 28.765625 21.824219 L 30.578125 21.824219 L 32.050781 19.273438 C 32.375 18.707031 32.375 18 32.035156 17.433594 " fill-opacity="1" fill-rule="nonzero"/></g><g clip-path="url(#bb6d3d4cfd)"><path fill="#ffffff" d="M 26.214844 28.503906 L 24.742188 25.957031 L 22.929688 25.957031 L 24.847656 29.304688 C 24.894531 29.378906 24.894531 29.488281 24.847656 29.566406 L 21.546875 35.324219 C 21.5 35.402344 21.410156 35.460938 21.316406 35.460938 L 14.714844 35.460938 C 14.621094 35.460938 14.527344 35.417969 14.484375 35.324219 L 11.179688 29.566406 C 11.136719 29.488281 11.136719 29.378906 11.179688 29.304688 L 14.484375 23.542969 C 14.527344 23.46875 14.621094 23.40625 14.714844 23.40625 L 18.015625 23.40625 L 17.109375 21.824219 L 14.730469 21.824219 C 14.066406 21.824219 13.46875 22.175781 13.148438 22.746094 L 9.828125 28.503906 C 9.507812 29.074219 9.507812 29.78125 9.828125 30.347656 L 13.132812 36.105469 C 13.453125 36.675781 14.066406 37.027344 14.714844 37.027344 L 21.316406 37.027344 C 21.976562 37.027344 22.578125 36.675781 22.898438 36.105469 L 26.199219 30.347656 C 26.554688 29.78125 26.554688 29.074219 26.214844 28.503906 " fill-opacity="1" fill-rule="nonzero"/></g><g clip-path="url(#18fc80442e)"><path fill="#ffffff" d="M 37.859375 28.503906 L 34.554688 22.761719 C 34.234375 22.191406 33.617188 21.839844 32.972656 21.839844 L 26.371094 21.839844 C 25.710938 21.839844 25.109375 22.191406 24.789062 22.761719 L 22.945312 25.957031 L 24.757812 25.957031 L 26.140625 23.542969 C 26.1875 23.46875 26.277344 23.40625 26.371094 23.40625 L 32.972656 23.40625 C 33.066406 23.40625 33.15625 23.453125 33.203125 23.542969 L 36.507812 29.304688 C 36.550781 29.378906 36.550781 29.488281 36.507812 29.566406 L 33.203125 35.324219 C 33.15625 35.402344 33.066406 35.460938 32.972656 35.460938 L 26.371094 35.460938 C 26.277344 35.460938 26.1875 35.417969 26.140625 35.324219 L 24.757812 32.929688 L 23.851562 34.511719 L 24.789062 36.121094 C 25.109375 36.691406 25.726562 37.042969 26.371094 37.042969 L 32.972656 37.042969 C 33.632812 37.042969 34.234375 36.691406 34.554688 36.121094 L 37.859375 30.363281 C 38.195312 29.78125 38.195312 29.074219 37.859375 28.503906 " fill-opacity="1" fill-rule="nonzero"/></g></svg>